<?xml version="1.0" standalone="no"?>
<!DOCTYPE svg PUBLIC "-//W3C//DTD SVG 20010904//EN"
 "http://www.w3.org/TR/2001/REC-SVG-20010904/DTD/svg10.dtd">
<svg version="1.0" xmlns="http://www.w3.org/2000/svg"
 width="500.000000pt" height="500.000000pt" viewBox="0 0 500.000000 500.000000"
 preserveAspectRatio="xMidYMid meet">

<g transform="translate(0.000000,500.000000) scale(0.100000,-0.100000)"
fill="#000000" stroke="none">
<path d="M3343 4556 c-152 -29 -295 -126 -382 -259 -22 -35 -41 -68 -41 -73 0
-7 179 -128 210 -142 3 -1 14 13 24 32 30 56 117 137 176 165 47 22 69 26 150
26 109 -1 161 -20 202 -77 33 -48 38 -162 9 -238 -33 -88 -99 -164 -450 -525
l-330 -340 -1 -112 0 -113 580 0 580 0 0 120 0 120 -391 0 -392 0 267 271
c271 275 336 350 386 450 103 202 83 436 -46 565 -49 49 -139 98 -221 119 -84
22 -244 27 -330 11z"/>
<path d="M980 3720 l0 -820 135 0 135 0 2 688 3 687 47 -135 c27 -74 121 -322
211 -550 l164 -415 115 -3 c103 -2 116 -1 122 15 4 10 88 221 186 468 98 248
190 488 204 535 l25 85 0 -687 1 -688 140 0 140 0 0 820 0 820 -212 0 -213 0
-184 -488 c-101 -268 -188 -496 -194 -506 -7 -15 -28 29 -104 220 -51 131
-142 359 -200 507 l-106 267 -208 0 -209 0 0 -820z"/>
<path d="M1300 2268 c-5 -59 -50 -885 -50 -910 l0 -38 94 0 c90 0 95 1 132 31
22 18 68 46 104 63 61 29 72 31 175 31 126 0 165 -14 228 -84 45 -49 57 -93
57 -202 0 -76 -4 -93 -31 -148 -54 -109 -147 -149 -318 -138 -135 9 -250 47
-338 113 -17 13 -35 24 -40 24 -13 0 -145 -223 -136 -229 5 -3 30 -21 57 -39
125 -88 292 -132 503 -132 83 0 150 5 188 15 193 50 335 183 391 370 28 90 25
278 -5 364 -63 182 -200 296 -388 322 -123 18 -203 3 -370 -68 -9 -4 -11 11
-8 59 3 34 8 129 11 211 l6 147 334 0 334 0 0 120 0 120 -465 0 c-256 0 -465
-1 -465 -2z"/>
<path d="M2630 1450 l0 -820 145 0 145 0 0 268 0 269 76 81 c42 45 80 80 84
77 5 -3 118 -161 251 -350 l242 -345 185 0 c146 0 182 3 175 13 -6 6 -126 172
-268 367 -143 195 -289 396 -326 446 l-68 92 302 344 c166 190 308 352 316
361 12 16 1 17 -155 17 l-169 -1 -315 -369 c-173 -203 -318 -369 -322 -369 -5
-1 -8 166 -8 369 l0 370 -145 0 -145 0 0 -820z"/>
</g>
</svg>
